<svg xmlns="http://www.w3.org/2000/svg" xmlns:svg="http://www.w3.org/2000/svg" xmlns:xlink="http://www.w3.org/1999/xlink" version="1.0" height="675pt" width="975pt" viewBox="60 322 983 681" ><defs><style type="text/css">
            @font-face {
                font-family: 'noto_regular';
                src: url('https://app.creately.com/diagram/assets/fonts/noto/noto-regular.woff') format('woff'),
                     url('https://app.creately.com/diagram/assets/fonts/noto/noto-regular.woff2') format('woff2');
                font-weight: normal;
                font-style: normal;
            }
        p {
            margin: 0;
        }
        </style></defs><defs><style>
            span{ display: inline-block; }
        </style></defs><g id="2mdat4a4ii"><g transform="translate(285 445)"><rect x="0" y="0" width="110.00000238418579" height="55.000001192092896" fill="rgba(255,255,255,1)" stroke="#5e5ca7" stroke-width="1.5" stroke-linecap="round" stroke-linejoin="round"/></g><g transform="translate(304.5000011920929, 455.00000059604645) rotate(0, 35.5, 17.5)" width="71" height="35"><text text-decoration="none" x="7" fill="rgb(0, 0, 0)" font-weight="bold" font-size="10pt" font-family="Arial"  y="12">Customer</text><text text-decoration="none" x="64" fill="rgb(0, 0, 0)" font-weight="bold" font-size="10pt" font-family="Arial"  y="12"></text><text text-decoration="none" x="35.5" fill="#4b4b4b" font-size="10pt" font-family="noto_regular"  y="31"></text></g></g><g id="2qhtj5mxjs"><g transform="translate(740 445)"><rect x="0" y="0" width="114.99999761581421" height="50" fill="rgba(255,255,255,1)" stroke="#5e5ca7" stroke-width="1.5" stroke-linecap="round" stroke-linejoin="round"/></g><g transform="translate(752.4999988079071, 460.5) rotate(0, 45, 9.5)" width="90" height="19"><text text-decoration="none" x="9" fill="rgb(0, 0, 0)" font-weight="bold" font-size="10pt" font-family="Arial"  y="15">Subscription</text><text text-decoration="none" x="81" fill="#4b4b4b" font-size="10pt" font-family="noto_regular"  y="15"></text></g></g><g id="u3rn20g86m"><g transform="translate(745 830)"><rect x="0" y="0" width="114.99999761581421" height="69.9999988079071" fill="rgba(255,255,255,1)" stroke="#5e5ca7" stroke-width="1.5" stroke-linecap="round" stroke-linejoin="round"/></g><g transform="translate(776.9999988079071, 855.4999994039536) rotate(0, 25.5, 9.5)" width="51" height="19"><text text-decoration="none" x="4.5" fill="rgb(0, 0, 0)" font-weight="bold" font-size="10pt" font-family="Arial"  y="15">Movies</text><text text-decoration="none" x="46.5" fill="#4b4b4b" font-size="10pt" font-family="noto_regular"  y="15"></text></g></g><g id="1ywdbie5rd"><g transform="translate(470 610)"><rect x="0" y="0" width="100" height="50" fill="rgba(255,255,255,1)" stroke="#5e5ca7" stroke-width="1.5" stroke-linecap="round" stroke-linejoin="round"/></g><g transform="translate(487.5, 625.5) rotate(0, 32.5, 9.5)" width="65" height="19"><text text-decoration="none" x="7" fill="rgb(0, 0, 0)" font-weight="bold" font-size="10pt" font-family="Arial"  y="15">Payment</text><text text-decoration="none" x="58" fill="#4b4b4b" font-size="10pt" font-family="noto_regular"  y="15"></text></g></g><g id="1vn9o3hutp"><g transform="translate(280 835)"><rect x="0" y="0" width="110.00000238418579" height="60.00000238418579" fill="rgba(255,255,255,1)" stroke="#5e5ca7" stroke-width="1.5" stroke-linecap="round" stroke-linejoin="round"/></g><g transform="translate(313.0000011920929, 855.5000011920929) rotate(0, 22, 9.5)" width="44" height="19"><text text-decoration="none" x="4.5" fill="rgb(0, 0, 0)" font-weight="bold" font-size="10pt" font-family="Arial"  y="15">Genre</text><text text-decoration="none" x="39.5" fill="#4b4b4b" font-size="10pt" font-family="noto_regular"  y="15"></text></g></g><g id="76z8ab6l4o"><g transform="translate(525 445)"><path d="M 100,25 L 50,50 L 0,25 L 50,0 Z" fill="rgb(255, 255, 255)" stroke="rgb(94, 92, 167)" stroke-width="1.5" vector-effect="non-scaling-stroke"/></g><g transform="translate(557, 458.5) rotate(0, 0, 0)" width="37" height="19"><text text-decoration="none" x="0" fill="#000000" font-weight="bold" font-size="11pt" font-family="Arial"  y="15">Has&#160;</text><text text-decoration="none" x="31" fill="#4b4b4b" font-size="10pt" font-family="noto_regular"  y="15"></text></g></g><g id="1fciefa26k"><g><path d="M 740,470 L 625,470" fill="none" stroke="#5e5ca7" stroke-width="1.5" stroke-linecap="round" stroke-linejoin="round"/></g></g><g id="1r17svpqh2"><g transform="translate(745 590)"><path d="M 100,25 L 50,50 L 0,25 L 50,0 Z" fill="rgb(255, 255, 255)" stroke="rgb(94, 92, 167)" stroke-width="1.5" vector-effect="non-scaling-stroke"/></g><g transform="translate(778.5, 603.5) rotate(0, 0, 0)" width="31" height="19"><text text-decoration="none" x="0" fill="#000000" font-weight="bold" font-size="11pt" font-family="Arial"  y="15">For&#160;</text><text text-decoration="none" x="25" fill="#4b4b4b" font-size="10pt" font-family="noto_regular"  y="15"></text></g></g><g id="97ssusns7j"><g><path d="M 795,495 L 795,590" fill="none" stroke="#5e5ca7" stroke-width="1.5" stroke-linecap="round" stroke-linejoin="round"/></g></g><g id="17o0ozfof3"><g><path d="M 800,830 L 795,640" fill="none" stroke="#5e5ca7" stroke-width="1.5" stroke-linecap="round" stroke-linejoin="round"/></g></g><g id="ymz3q3db5r"><g transform="translate(515 840)"><path d="M 100,25 L 50,50 L 0,25 L 50,0 Z" fill="rgb(255, 255, 255)" stroke="rgb(94, 92, 167)" stroke-width="1.5" vector-effect="non-scaling-stroke"/></g><g transform="translate(520.5, 853.5) rotate(0, 0, 0)" width="95" height="19"><text text-decoration="none" x="0" fill="#000000" font-weight="bold" font-size="11pt" font-family="Arial"  y="15">Belongs&#160;</text><text text-decoration="none" x="59" fill="#000000" font-weight="bold" font-size="11pt" font-family="Arial"  y="15">To&#160;</text><text text-decoration="none" x="80" fill="#4b4b4b" font-size="10pt" font-family="noto_regular"  y="15"></text></g></g><g id="2mhdoarct4"><g><path d="M 745,865 L 615,865" fill="none" stroke="#5e5ca7" stroke-width="1.5" stroke-linecap="round" stroke-linejoin="round"/></g></g><g id="c6wceg08qj"><g><path d="M 395,475 L 525,470" fill="none" stroke="#5e5ca7" stroke-width="1.5" stroke-linecap="round" stroke-linejoin="round"/></g></g><g id="2accy7ovdp"><g><path d="M 390,865 L 515,865" fill="none" stroke="#5e5ca7" stroke-width="1.5" stroke-linecap="round" stroke-linejoin="round"/></g></g><g id="d7l1yjliaz"><g transform="translate(290 585)"><path d="M 100,25 L 50,50 L 0,25 L 50,0 Z" fill="rgb(255, 255, 255)" stroke="rgb(94, 92, 167)" stroke-width="1.5" vector-effect="non-scaling-stroke"/></g><g transform="translate(313, 598.5) rotate(0, 0, 0)" width="59" height="19"><text text-decoration="none" x="0" fill="#000000" font-weight="bold" font-size="11pt" font-family="Arial"  y="15">Makes&#160;</text><text text-decoration="none" x="49" fill="#4b4b4b" font-size="10pt" font-family="noto_regular"  y="15"></text></g></g><g id="6agkb5rkex"><g><path d="M 470,635 L 340,635" fill="none" stroke="#5e5ca7" stroke-width="1.5" stroke-linecap="round" stroke-linejoin="round"/></g></g><g id="2f30s4arii"><g><path d="M 340,500 L 340,585" fill="none" stroke="#5e5ca7" stroke-width="1.5" stroke-linecap="round" stroke-linejoin="round"/></g></g><g id="2i1fvv8411"><g transform="translate(615 550)"><path d="M 100,25 L 50,50 L 0,25 L 50,0 Z" fill="rgb(255, 255, 255)" stroke="rgb(94, 92, 167)" stroke-width="1.5" vector-effect="non-scaling-stroke"/></g><g transform="translate(640.5, 563.5) rotate(0, 0, 0)" width="51" height="19"><text text-decoration="none" x="0" fill="#000000" font-weight="bold" font-size="11pt" font-family="Arial"  y="15">Gives&#160;</text><text text-decoration="none" x="42" fill="#4b4b4b" font-size="10pt" font-family="noto_regular"  y="15"></text></g></g><g id="2twx4dbn3q"><g><path d="M 570,635 L 665,600" fill="none" stroke="#5e5ca7" stroke-width="1.5" stroke-linecap="round" stroke-linejoin="round"/></g></g><g id="6lqezozegu"><g><path d="M 755,500 L 715,575" fill="none" stroke="#5e5ca7" stroke-width="1.5" stroke-linecap="round" stroke-linejoin="round"/></g></g><g id="1k21yornwd"><g transform="translate(285 740)"><rect x="0" y="0" width="100" height="50" fill="rgba(255,255,255,1)" stroke="#5e5ca7" stroke-width="1.5" stroke-linecap="round" stroke-linejoin="round"/></g><g transform="translate(302.5, 747.5) rotate(0, 32.5, 17.5)" width="65" height="35"><text text-decoration="none" x="7" fill="rgb(0, 0, 0)" font-weight="bold" font-size="10pt" font-family="Arial"  y="12">Payment&#160;</text><text text-decoration="none" x="11.5" fill="rgb(0, 0, 0)" font-weight="bold" font-size="10pt" font-family="Arial"  y="31">History</text><text text-decoration="none" x="53.5" fill="#4b4b4b" font-size="10pt" font-family="noto_regular"  y="31"></text></g></g><g id="6b5ziz1gqf"><g transform="translate(470 740)"><path d="M 100,25 L 50,50 L 0,25 L 50,0 Z" fill="rgb(255, 255, 255)" stroke="rgb(94, 92, 167)" stroke-width="1.5" vector-effect="non-scaling-stroke"/></g><g transform="translate(502, 753.5) rotate(0, 0, 0)" width="37" height="19"><text text-decoration="none" x="0" fill="#000000" font-weight="bold" font-size="11pt" font-family="Arial"  y="15">Has&#160;</text><text text-decoration="none" x="31" fill="#4b4b4b" font-size="10pt" font-family="noto_regular"  y="15"></text></g></g><g id="29ttmvyxni"><g><path d="M 520,660 L 520,740" fill="none" stroke="#5e5ca7" stroke-width="1.5" stroke-linecap="round" stroke-linejoin="round"/></g></g><g id="1iobrv43qv"><g><path d="M 385,765 L 470,765" fill="none" stroke="#5e5ca7" stroke-width="1.5" stroke-linecap="round" stroke-linejoin="round"/></g></g><g id="2i7q0f1tv1"><g transform="translate(255 330)"><ellipse cx="50" cy="25" rx="50" ry="25" fill="rgba(255,255,255,1)" stroke="#5e5ca7" stroke-width="1.5" stroke-linecap="round" stroke-linejoin="round"/></g><g transform="translate(264.5, 345.5) rotate(0, 40.5, 9.5)" width="81" height="19"><text text-decoration="none" x="9" fill="rgb(0, 0, 0)" font-weight="bold" font-size="10pt" font-family="Arial"  y="15">First&#160;</text><text text-decoration="none" x="38" fill="rgb(0, 0, 0)" font-weight="bold" font-size="10pt" font-family="Arial"  y="15">Name</text><text text-decoration="none" x="72" fill="#4b4b4b" font-size="10pt" font-family="noto_regular"  y="15"></text></g></g><g id="1s37pmx16q"><g transform="translate(145 375)"><ellipse cx="50" cy="25" rx="50" ry="25" fill="rgba(255,255,255,1)" stroke="#5e5ca7" stroke-width="1.5" stroke-linecap="round" stroke-linejoin="round"/></g><g transform="translate(155.5, 390.5) rotate(0, 39.5, 9.5)" width="79" height="19"><text text-decoration="none" x="8.5" fill="rgb(0, 0, 0)" font-weight="bold" font-size="10pt" font-family="Arial"  y="15">Last&#160;</text><text text-decoration="none" x="36.5" fill="rgb(0, 0, 0)" font-weight="bold" font-size="10pt" font-family="Arial"  y="15">Name</text><text text-decoration="none" x="70.5" fill="#4b4b4b" font-size="10pt" font-family="noto_regular"  y="15"></text></g></g><g id="21hl87h8x2"><g transform="translate(105 440)"><ellipse cx="50" cy="25" rx="50" ry="25" fill="rgba(255,255,255,1)" stroke="#5e5ca7" stroke-width="1.5" stroke-linecap="round" stroke-linejoin="round"/></g><g transform="translate(125.5, 455.5) rotate(0, 29.5, 9.5)" width="59" height="19"><text text-decoration="none" x="5" fill="rgb(0, 0, 0)" font-weight="bold" font-size="10pt" font-family="Arial"  y="15">Address</text><text text-decoration="none" x="54" fill="#4b4b4b" font-size="10pt" font-family="noto_regular"  y="15"></text></g></g><g id="2a008i8mpa"><g transform="translate(365 325)"><ellipse cx="50" cy="25" rx="50" ry="25" fill="rgba(255,255,255,1)" stroke="#5e5ca7" stroke-width="1.5" stroke-linecap="round" stroke-linejoin="round"/></g><g transform="translate(369, 340.5) rotate(0, 46, 9.5)" width="92" height="19"><text text-decoration="underline" x="10" fill="rgb(0, 0, 0)" font-weight="bold" font-size="10pt" font-family="Arial"  y="15">Customer&#160;</text><text text-decoration="underline" x="70" fill="rgb(0, 0, 0)" font-weight="bold" font-size="10pt" font-family="Arial"  y="15">ID</text><text text-decoration="none" x="82" fill="#4b4b4b" font-size="10pt" font-family="noto_regular"  y="15"></text></g></g><g id="hgzha473ty"><g transform="translate(225 525)"><ellipse cx="50" cy="25" rx="50" ry="25" fill="rgba(255,255,255,1)" stroke="#5e5ca7" stroke-width="1.5" stroke-linecap="round" stroke-linejoin="round"/></g><g transform="translate(252, 540.5) rotate(0, 23, 9.5)" width="46" height="19"><text text-decoration="none" x="5" fill="rgb(0, 0, 0)" font-weight="bold" font-size="10pt" font-family="Arial"  y="15">Phone</text><text text-decoration="none" x="41" fill="#4b4b4b" font-size="10pt" font-family="noto_regular"  y="15"></text></g></g><g id="5px78w804w"><g><path d="M 205,465 L 245,465 L 245,470 L 245,475 L 285,475" fill="none" stroke="#5e5ca7" stroke-width="1.5" stroke-linecap="round" stroke-linejoin="round"/></g></g><g id="1ar8b7cgl4"><g><path d="M 275,525 L 275,512.5000005960464 L 270,512.5000005960464 L 265,512.5000005960464 L 265,493.7500002980232 L 265,475 L 285,475" fill="none" stroke="#5e5ca7" stroke-width="1.5" stroke-linecap="round" stroke-linejoin="round"/></g></g><g id="2nn8jp8imv"><g><path d="M 245,400 L 265,400 L 265,437.5 L 265,475 L 285,475" fill="none" stroke="#5e5ca7" stroke-width="1.5" stroke-linecap="round" stroke-linejoin="round"/></g></g><g id="2l56j9i0ey"><g><path d="M 305,380 L 305,412.5 L 297.5,412.5 L 290,412.5 L 290,445" fill="none" stroke="#5e5ca7" stroke-width="1.5" stroke-linecap="round" stroke-linejoin="round"/></g></g><g id="cry3vrre8h"><g><path d="M 415,375 L 415,410 L 377.5,410 L 340,410 L 340,445" fill="none" stroke="#5e5ca7" stroke-width="1.5" stroke-linecap="round" stroke-linejoin="round"/></g></g><g id="6zxqbm2k3k"><g transform="translate(90 520)"><ellipse cx="50" cy="25" rx="50" ry="25" fill="rgba(255,255,255,1)" stroke="#5e5ca7" stroke-width="1.5" stroke-linecap="round" stroke-linejoin="round"/></g><g transform="translate(120, 535.5) rotate(0, 20, 9.5)" width="40" height="19"><text text-decoration="none" x="4.5" fill="rgb(0, 0, 0)" font-weight="bold" font-size="10pt" font-family="Arial"  y="15">Email</text><text text-decoration="none" x="35.5" fill="#4b4b4b" font-size="10pt" font-family="noto_regular"  y="15"></text></g></g><g id="1shitrx5m7"><g><path d="M 140,520 L 140,495 L 176.25,495 L 212.5,495 L 212.5,485 L 212.5,475 L 285,475" fill="none" stroke="#5e5ca7" stroke-width="1.5" stroke-linecap="round" stroke-linejoin="round"/></g></g><g id="1sxkekaljr"><g transform="translate(630 325)"><ellipse cx="52.49999761581421" cy="25" rx="52.49999761581421" ry="25" fill="rgba(255,255,255,1)" stroke="#5e5ca7" stroke-width="1.5" stroke-linecap="round" stroke-linejoin="round"/></g><g transform="translate(637.4999976158142, 332.5) rotate(0, 45, 17.5)" width="90" height="35"><text text-decoration="underline" x="1.5" fill="rgb(0, 0, 0)" font-weight="bold" font-size="10pt" font-family="Arial"  y="15">Subscription&#160;</text><text text-decoration="underline" x="76.5" fill="rgb(0, 0, 0)" font-weight="bold" font-size="10pt" font-family="Arial"  y="15">ID</text><text text-decoration="none" x="88.5" fill="#4b4b4b" font-size="10pt" font-family="noto_regular"  y="15"></text></g></g><g id="ambh03jl0v"><g transform="translate(755 325)"><ellipse cx="55.000001192092896" cy="25" rx="55.000001192092896" ry="25" fill="rgba(255,255,255,1)" stroke="#5e5ca7" stroke-width="1.5" stroke-linecap="round" stroke-linejoin="round"/></g><g transform="translate(765.0000011920929, 332.5) rotate(0, 45, 17.5)" width="90" height="35"><text text-decoration="none" x="9" fill="rgb(0, 0, 0)" font-weight="bold" font-size="10pt" font-family="Arial"  y="12">Subscription&#160;</text><text text-decoration="none" x="30.5" fill="rgb(0, 0, 0)" font-weight="bold" font-size="10pt" font-family="Arial"  y="31">Type</text><text text-decoration="none" x="59.5" fill="#4b4b4b" font-size="10pt" font-family="noto_regular"  y="31"></text></g></g><g id="hoixclwvzb"><g transform="translate(870 370)"><ellipse cx="50" cy="25" rx="50" ry="25" fill="rgba(255,255,255,1)" stroke="#5e5ca7" stroke-width="1.5" stroke-linecap="round" stroke-linejoin="round"/></g><g transform="translate(901.5, 385.5) rotate(0, 18.5, 9.5)" width="37" height="19"><text text-decoration="none" x="3.5" fill="rgb(0, 0, 0)" font-weight="bold" font-size="10pt" font-family="Arial"  y="15">Price</text><text text-decoration="none" x="33.5" fill="#4b4b4b" font-size="10pt" font-family="noto_regular"  y="15"></text></g></g><g id="2e6h9qvipv"><g transform="translate(890 455)"><ellipse cx="55.000001192092896" cy="25" rx="55.000001192092896" ry="25" fill="rgba(255,255,255,1)" stroke="#5e5ca7" stroke-width="1.5" stroke-linecap="round" stroke-linejoin="round"/></g><g transform="translate(900.0000011920929, 462.5) rotate(0, 45, 17.5)" width="90" height="35"><text text-decoration="none" x="9" fill="rgb(0, 0, 0)" font-weight="bold" font-size="10pt" font-family="Arial"  y="12">Subscription&#160;</text><text text-decoration="none" x="32" fill="rgb(0, 0, 0)" font-weight="bold" font-size="10pt" font-family="Arial"  y="31">Date</text><text text-decoration="none" x="58" fill="#4b4b4b" font-size="10pt" font-family="noto_regular"  y="31"></text></g></g><g id="a3l9vvwvq0"><g><path d="M 735,350 L 737.4999961853027,350 L 737.4999961853027,405 L 737.4999961853027,460 L 740,460" fill="none" stroke="#5e5ca7" stroke-width="1.5" stroke-linecap="round" stroke-linejoin="round"/></g></g><g id="5n4t31mbwu"><g><path d="M 810,375 L 810,410 L 802.5,410 L 795,410 L 795,445" fill="none" stroke="#5e5ca7" stroke-width="1.5" stroke-linecap="round" stroke-linejoin="round"/></g></g><g id="2drl8ajrh0"><g><path d="M 870,395 L 820,395 L 820,445" fill="none" stroke="#5e5ca7" stroke-width="1.5" stroke-linecap="round" stroke-linejoin="round"/></g></g><g id="1mbx3qgxwz"><g><path d="M 890,480 L 872.5,480 L 872.5,475 L 872.5,470 L 855,470" fill="none" stroke="#5e5ca7" stroke-width="1.5" stroke-linecap="round" stroke-linejoin="round"/></g></g><g id="ybcl6j2f9x"><g transform="translate(905 780)"><ellipse cx="50" cy="25" rx="50" ry="25" fill="rgba(255,255,255,1)" stroke="#5e5ca7" stroke-width="1.5" stroke-linecap="round" stroke-linejoin="round"/></g><g transform="translate(939, 795.5) rotate(0, 16, 9.5)" width="32" height="19"><text text-decoration="none" x="3.5" fill="rgb(0, 0, 0)" font-weight="bold" font-size="10pt" font-family="Arial"  y="15">Title</text><text text-decoration="none" x="28.5" fill="#4b4b4b" font-size="10pt" font-family="noto_regular"  y="15"></text></g></g><g id="13pcmsp14j"><g transform="translate(830 715)"><ellipse cx="50" cy="25" rx="50" ry="25" fill="rgba(255,255,255,1)" stroke="#5e5ca7" stroke-width="1.5" stroke-linecap="round" stroke-linejoin="round"/></g><g transform="translate(848, 730.5) rotate(0, 32, 9.5)" width="64" height="19"><text text-decoration="underline" x="7" fill="rgb(0, 0, 0)" font-weight="bold" font-size="10pt" font-family="Arial"  y="15">Movie&#160;</text><text text-decoration="underline" x="45" fill="rgb(0, 0, 0)" font-weight="bold" font-size="10pt" font-family="Arial"  y="15">ID</text><text text-decoration="none" x="57" fill="#4b4b4b" font-size="10pt" font-family="noto_regular"  y="15"></text></g></g><g id="5oy0lrmnh8"><g transform="translate(940 855)"><ellipse cx="50" cy="25" rx="50" ry="25" fill="rgba(255,255,255,1)" stroke="#5e5ca7" stroke-width="1.5" stroke-linecap="round" stroke-linejoin="round"/></g><g transform="translate(941, 870.5) rotate(0, 49, 9.5)" width="98" height="19"><text text-decoration="none" x="11.5" fill="rgb(0, 0, 0)" font-weight="bold" font-size="10pt" font-family="Arial"  y="15">Release&#160;</text><text text-decoration="none" x="60.5" fill="rgb(0, 0, 0)" font-weight="bold" font-size="10pt" font-family="Arial"  y="15">Date</text><text text-decoration="none" x="86.5" fill="#4b4b4b" font-size="10pt" font-family="noto_regular"  y="15"></text></g></g><g id="1o1oirv2kw"><g transform="translate(875 925)"><ellipse cx="50" cy="25" rx="50" ry="25" fill="rgba(255,255,255,1)" stroke="#5e5ca7" stroke-width="1.5" stroke-linecap="round" stroke-linejoin="round"/></g><g transform="translate(901.5, 940.5) rotate(0, 23.5, 9.5)" width="47" height="19"><text text-decoration="none" x="5.5" fill="rgb(0, 0, 0)" font-weight="bold" font-size="10pt" font-family="Arial"  y="15">Rating</text><text text-decoration="none" x="41.5" fill="#4b4b4b" font-size="10pt" font-family="noto_regular"  y="15"></text></g></g><g id="1g8jocqze6"><g><path d="M 880,765 L 880,797.5 L 852.5,797.5 L 825,797.5 L 825,830" fill="none" stroke="#5e5ca7" stroke-width="1.5" stroke-linecap="round" stroke-linejoin="round"/></g></g><g id="84c3e8kztl"><g><path d="M 905,805 L 882.4999988079071,805 L 882.4999988079071,835 L 882.4999988079071,865 L 860,865" fill="none" stroke="#5e5ca7" stroke-width="1.5" stroke-linecap="round" stroke-linejoin="round"/></g></g><g id="2hl6fnmklh"><g><path d="M 940,880 L 899.9999988079071,880 L 899.9999988079071,872.5 L 899.9999988079071,865 L 860,865" fill="none" stroke="#5e5ca7" stroke-width="1.5" stroke-linecap="round" stroke-linejoin="round"/></g></g><g id="21cqhthazj"><g><path d="M 875,950 L 800,950 L 800,900" fill="none" stroke="#5e5ca7" stroke-width="1.5" stroke-linecap="round" stroke-linejoin="round"/></g></g><g id="2ish8m7qkh"><g transform="translate(380 950)"><ellipse cx="50" cy="25" rx="50" ry="25" fill="rgba(255,255,255,1)" stroke="#5e5ca7" stroke-width="1.5" stroke-linecap="round" stroke-linejoin="round"/></g><g transform="translate(388.5, 957.5) rotate(0, 41.5, 17.5)" width="83" height="35"><text text-decoration="none" x="24" fill="rgb(0, 0, 0)" font-weight="bold" font-size="10pt" font-family="Arial"  y="12">Genre&#160;</text><text text-decoration="none" x="9" fill="rgb(0, 0, 0)" font-weight="bold" font-size="10pt" font-family="Arial"  y="31">Description</text><text text-decoration="none" x="74" fill="#4b4b4b" font-size="10pt" font-family="noto_regular"  y="31"></text></g></g><g id="2jumke8g4t"><g transform="translate(230 950)"><ellipse cx="50" cy="25" rx="50" ry="25" fill="rgba(255,255,255,1)" stroke="#5e5ca7" stroke-width="1.5" stroke-linecap="round" stroke-linejoin="round"/></g><g transform="translate(247.5, 965.5) rotate(0, 32.5, 9.5)" width="65" height="19"><text text-decoration="underline" x="7.5" fill="rgb(0, 0, 0)" font-weight="bold" font-size="10pt" font-family="Arial"  y="15">Genre&#160;</text><text text-decoration="underline" x="45.5" fill="rgb(0, 0, 0)" font-weight="bold" font-size="10pt" font-family="Arial"  y="15">ID</text><text text-decoration="none" x="57.5" fill="#4b4b4b" font-size="10pt" font-family="noto_regular"  y="15"></text></g></g><g id="2h6vo6a4ub"><g><path d="M 280,950 L 280,922.5000011920929 L 307.5,922.5000011920929 L 335,922.5000011920929 L 335,895" fill="none" stroke="#5e5ca7" stroke-width="1.5" stroke-linecap="round" stroke-linejoin="round"/></g></g><g id="1pddegqcod"><g><path d="M 430,950 L 430,922.5000011920929 L 382.5,922.5000011920929 L 335,922.5000011920929 L 335,895" fill="none" stroke="#5e5ca7" stroke-width="1.5" stroke-linecap="round" stroke-linejoin="round"/></g></g><g id="ocvuqil25a"><g transform="translate(395 525)"><ellipse cx="50" cy="25" rx="50" ry="25" fill="rgba(255,255,255,1)" stroke="#5e5ca7" stroke-width="1.5" stroke-linecap="round" stroke-linejoin="round"/></g><g transform="translate(402, 540.5) rotate(0, 43, 9.5)" width="86" height="19"><text text-decoration="underline" x="10" fill="rgb(0, 0, 0)" font-weight="bold" font-size="10pt" font-family="Arial"  y="15">Payment&#160;</text><text text-decoration="underline" x="64" fill="rgb(0, 0, 0)" font-weight="bold" font-size="10pt" font-family="Arial"  y="15">ID</text><text text-decoration="none" x="76" fill="#4b4b4b" font-size="10pt" font-family="noto_regular"  y="15"></text></g></g><g id="1nbrv4zcgf"><g transform="translate(515 525)"><ellipse cx="50" cy="25" rx="50" ry="25" fill="rgba(255,255,255,1)" stroke="#5e5ca7" stroke-width="1.5" stroke-linecap="round" stroke-linejoin="round"/></g><g transform="translate(532.5, 532.5) rotate(0, 32.5, 17.5)" width="65" height="35"><text text-decoration="none" x="7" fill="rgb(0, 0, 0)" font-weight="bold" font-size="10pt" font-family="Arial"  y="12">Payment&#160;</text><text text-decoration="none" x="11" fill="rgb(0, 0, 0)" font-weight="bold" font-size="10pt" font-family="Arial"  y="31">Method</text><text text-decoration="none" x="54" fill="#4b4b4b" font-size="10pt" font-family="noto_regular"  y="31"></text></g></g><g id="1rc7q5rqwh"><g><path d="M 445,575 L 445,592.5 L 447.5,592.5 L 450,592.5 L 450,603.75 L 450,615 L 470,615" fill="none" stroke="#5e5ca7" stroke-width="1.5" stroke-linecap="round" stroke-linejoin="round"/></g></g><g id="6rhw603i32"><g><path d="M 565,575 L 565,592.5 L 542.5,592.5 L 520,592.5 L 520,610" fill="none" stroke="#5e5ca7" stroke-width="1.5" stroke-linecap="round" stroke-linejoin="round"/></g></g><g id="1f9voovlk5"><g transform="translate(615 625)"><ellipse cx="50" cy="25" rx="50" ry="25" fill="rgba(255,255,255,1)" stroke="#5e5ca7" stroke-width="1.5" stroke-linecap="round" stroke-linejoin="round"/></g><g transform="translate(632.5, 632.5) rotate(0, 32.5, 17.5)" width="65" height="35"><text text-decoration="none" x="7" fill="rgb(0, 0, 0)" font-weight="bold" font-size="10pt" font-family="Arial"  y="12">Payment&#160;</text><text text-decoration="none" x="19.5" fill="rgb(0, 0, 0)" font-weight="bold" font-size="10pt" font-family="Arial"  y="31">Date</text><text text-decoration="none" x="45.5" fill="#4b4b4b" font-size="10pt" font-family="noto_regular"  y="31"></text></g></g><g id="1glu60lq4i"><g><path d="M 615,650 L 592.5,650 L 592.5,665 L 592.5,680 L 578.75,680 L 565,680 L 565,660" fill="none" stroke="#5e5ca7" stroke-width="1.5" stroke-linecap="round" stroke-linejoin="round"/></g></g><g id="9w60d8jmky"><g transform="translate(610 710)"><ellipse cx="50" cy="25" rx="50" ry="25" fill="rgba(255,255,255,1)" stroke="#5e5ca7" stroke-width="1.5" stroke-linecap="round" stroke-linejoin="round"/></g><g transform="translate(625.5, 725.5) rotate(0, 34.5, 9.5)" width="69" height="19"><text text-decoration="none" x="9" fill="rgb(0, 0, 0)" font-weight="bold" font-size="10pt" font-family="Arial"  y="15">Due&#160;</text><text text-decoration="none" x="34" fill="rgb(0, 0, 0)" font-weight="bold" font-size="10pt" font-family="Arial"  y="15">Date</text><text text-decoration="none" x="60" fill="#4b4b4b" font-size="10pt" font-family="noto_regular"  y="15"></text></g></g><g id="2eifqkrpol"><g transform="translate(370 680)"><ellipse cx="50" cy="25" rx="50" ry="25" fill="rgba(255,255,255,1)" stroke="#5e5ca7" stroke-width="1.5" stroke-linecap="round" stroke-linejoin="round"/></g><g transform="translate(373, 695.5) rotate(0, 47, 9.5)" width="94" height="19"><text text-decoration="none" x="10.5" fill="rgb(0, 0, 0)" font-weight="bold" font-size="10pt" font-family="Arial"  y="15">Amount&#160;</text><text text-decoration="none" x="58.5" fill="rgb(0, 0, 0)" font-weight="bold" font-size="10pt" font-family="Arial"  y="15">Paid</text><text text-decoration="none" x="83.5" fill="#4b4b4b" font-size="10pt" font-family="noto_regular"  y="15"></text></g></g><g id="2fsmseefet"><g><path d="M 420,680 L 420,670 L 435,670 L 450,670 L 450,660 L 450,650 L 470,650" fill="none" stroke="#5e5ca7" stroke-width="1.5" stroke-linecap="round" stroke-linejoin="round"/></g></g><g id="cms0ndb8mg"><g><path d="M 660,710 L 660,685 L 600,685 L 540,685 L 540,660" fill="none" stroke="#5e5ca7" stroke-width="1.5" stroke-linecap="round" stroke-linejoin="round"/></g></g><g id="glphzpej16"><g transform="translate(125 630)"><ellipse cx="50" cy="25" rx="50" ry="25" fill="rgba(255,255,255,1)" stroke="#5e5ca7" stroke-width="1.5" stroke-linecap="round" stroke-linejoin="round"/></g><g transform="translate(137, 645.5) rotate(0, 38, 9.5)" width="76" height="19"><text text-decoration="none" x="9.5" fill="rgb(0, 0, 0)" font-weight="bold" font-size="10pt" font-family="Arial"  y="15">Start&#160;</text><text text-decoration="none" x="40.5" fill="rgb(0, 0, 0)" font-weight="bold" font-size="10pt" font-family="Arial"  y="15">Date</text><text text-decoration="none" x="66.5" fill="#4b4b4b" font-size="10pt" font-family="noto_regular"  y="15"></text></g></g><g id="v56cvn9362"><g transform="translate(65 765)"><ellipse cx="50" cy="25" rx="50" ry="25" fill="rgba(255,255,255,1)" stroke="#5e5ca7" stroke-width="1.5" stroke-linecap="round" stroke-linejoin="round"/></g><g transform="translate(82.5, 780.5) rotate(0, 32.5, 9.5)" width="65" height="19"><text text-decoration="none" x="7" fill="rgb(0, 0, 0)" font-weight="bold" font-size="10pt" font-family="Arial"  y="15">Payment</text><text text-decoration="none" x="58" fill="#4b4b4b" font-size="10pt" font-family="noto_regular"  y="15"></text></g></g><g id="1kn6mjv5gu"><g transform="translate(75 695)"><ellipse cx="50" cy="25" rx="50" ry="25" fill="rgba(255,255,255,1)" stroke="#5e5ca7" stroke-width="1.5" stroke-linecap="round" stroke-linejoin="round"/></g><g transform="translate(91.5, 710.5) rotate(0, 33.5, 9.5)" width="67" height="19"><text text-decoration="none" x="8.5" fill="rgb(0, 0, 0)" font-weight="bold" font-size="10pt" font-family="Arial"  y="15">End&#160;</text><text text-decoration="none" x="32.5" fill="rgb(0, 0, 0)" font-weight="bold" font-size="10pt" font-family="Arial"  y="15">Date</text><text text-decoration="none" x="58.5" fill="#4b4b4b" font-size="10pt" font-family="noto_regular"  y="15"></text></g></g><g id="2dtgycgmnj"><g transform="translate(265 660)"><ellipse cx="50" cy="25" rx="50" ry="25" fill="rgba(255,255,255,1)" stroke="#5e5ca7" stroke-width="1.5" stroke-linecap="round" stroke-linejoin="round"/></g><g transform="translate(278.5, 675.5) rotate(0, 36.5, 9.5)" width="73" height="19"><text text-decoration="underline" x="8" fill="rgb(0, 0, 0)" font-weight="bold" font-size="10pt" font-family="Arial"  y="15">History&#160;</text><text text-decoration="underline" x="53" fill="rgb(0, 0, 0)" font-weight="bold" font-size="10pt" font-family="Arial"  y="15">ID</text><text text-decoration="none" x="65" fill="#4b4b4b" font-size="10pt" font-family="noto_regular"  y="15"></text></g></g><g id="1w6bjtemqe"><g><path d="M 315,710 L 315,725 L 325,725 L 335,725 L 335,740" fill="none" stroke="#5e5ca7" stroke-width="1.5" stroke-linecap="round" stroke-linejoin="round"/></g></g><g id="1lbdmz057l"><g><path d="M 225,655 L 255,655 L 255,702.5 L 255,750 L 280,750" fill="none" stroke="#5e5ca7" stroke-width="1.5" stroke-linecap="round" stroke-linejoin="round"/></g></g><g id="1tka7xtluq"><g><path d="M 175,720 L 230,720 L 230,742.5 L 230,765 L 285,765" fill="none" stroke="#5e5ca7" stroke-width="1.5" stroke-linecap="round" stroke-linejoin="round"/></g></g><g id="41ebli7krv"><g><path d="M 165,790 L 225,790 L 225,777.5 L 225,765 L 285,765" fill="none" stroke="#5e5ca7" stroke-width="1.5" stroke-linecap="round" stroke-linejoin="round"/></g></g><g id="2myaxoy4nd"><g transform="translate(85 845)"><ellipse cx="50" cy="25" rx="50" ry="25" fill="rgba(255,255,255,1)" stroke="#5e5ca7" stroke-width="1.5" stroke-linecap="round" stroke-linejoin="round"/></g><g transform="translate(92, 860.5) rotate(0, 43, 9.5)" width="86" height="19"><text text-decoration="underline" x="10" fill="rgb(0, 0, 0)" font-weight="bold" font-size="10pt" font-family="Arial"  y="15">Payment&#160;</text><text text-decoration="underline" x="64" fill="rgb(0, 0, 0)" font-weight="bold" font-size="10pt" font-family="Arial"  y="15">ID</text><text text-decoration="none" x="76" fill="#4b4b4b" font-size="10pt" font-family="noto_regular"  y="15"></text></g></g><g id="cqa39yoqv8"><g><path d="M 135,845 L 135,830 L 173.75,830 L 212.5,830 L 212.5,820 L 212.5,810 L 230.625,810 L 248.75,810 L 248.75,795 L 248.75,780 L 285,780" fill="none" stroke="#5e5ca7" stroke-width="1.5" stroke-linecap="round" stroke-linejoin="round"/></g></g></svg>